<?xml version="1.0" standalone="no"?>
<!DOCTYPE svg PUBLIC "-//W3C//DTD SVG 20010904//EN"
 "http://www.w3.org/TR/2001/REC-SVG-20010904/DTD/svg10.dtd">
<svg version="1.0" xmlns="http://www.w3.org/2000/svg"
 width="50" height="50" viewBox="0 0 512 512"
 preserveAspectRatio="xMidYMid meet">

<g transform="translate(0.000000,512.000000) scale(0.100000,-0.100000)"
fill="#D34836" stroke="none">
<path d="M2330 5110 c-494 -48 -950 -230 -1350 -538 -195 -150 -448 -432 -594
-662 -63 -99 -186 -351 -230 -471 -49 -134 -102 -340 -128 -499 -31 -195 -31
-565 0 -760 45 -276 116 -498 237 -745 132 -269 269 -460 489 -681 221 -220
412 -357 681 -489 247 -121 469 -192 745 -237 195 -31 565 -31 760 0 276 45
498 116 745 237 269 132 460 269 681 489 220 221 357 412 489 681 88 179 132
296 180 476 63 240 78 371 78 649 0 278 -15 409 -78 649 -48 180 -92 297 -180
476 -132 269 -269 460 -489 681 -221 220 -412 357 -681 489 -246 121 -474 193
-740 235 -147 23 -475 34 -615 20z m585 -339 c637 -107 1177 -462 1531 -1006
163 -251 279 -558 331 -880 24 -153 24 -497 0 -650 -106 -652 -456 -1196
-1001 -1553 -258 -170 -563 -286 -891 -339 -153 -24 -497 -24 -650 0 -656 106
-1202 460 -1561 1012 -163 251 -279 558 -331 880 -24 153 -24 497 0 650 106
656 460 1202 1012 1561 291 189 661 315 1025 348 108 10 418 -4 535 -23z"/>
<path d="M2553 3826 c-347 -67 -634 -296 -808 -646 -24 -48 -47 -99 -50 -113
l-7 -26 -153 -3 c-167 -3 -182 -8 -229 -72 -29 -39 -29 -133 0 -172 45 -60 66
-69 187 -72 l112 -4 0 -158 0 -158 -112 -4 c-121 -3 -142 -12 -187 -72 -29
-39 -29 -133 0 -172 47 -64 62 -69 229 -72 l153 -3 7 -26 c10 -42 89 -195 142
-275 99 -150 275 -309 433 -388 248 -125 537 -143 790 -49 92 34 230 112 260
146 96 108 3 279 -141 260 -21 -3 -65 -21 -97 -41 -361 -219 -801 -79 -1024
326 l-26 47 293 3 c278 3 295 4 321 24 53 39 69 71 69 134 0 63 -16 95 -69
134 -26 20 -42 21 -370 24 l-343 3 -7 52 c-8 66 -8 148 0 214 l7 52 423 3
c409 3 423 4 450 24 53 39 69 71 69 134 0 63 -16 95 -69 134 -26 20 -42 21
-401 24 l-373 3 26 47 c223 405 663 545 1024 326 32 -20 76 -38 97 -41 144
-19 237 152 141 260 -50 57 -241 148 -380 182 -92 22 -298 28 -387 11z"/>
</g>
</svg>
