<?xml version="1.0" standalone="no"?>
<!DOCTYPE svg PUBLIC "-//W3C//DTD SVG 20010904//EN"
 "http://www.w3.org/TR/2001/REC-SVG-20010904/DTD/svg10.dtd">
<svg version="1.0" xmlns="http://www.w3.org/2000/svg"
 width="50" height="50" viewBox="0 0 512.000000 512.000000"
 preserveAspectRatio="xMidYMid meet">

<g transform="translate(0.000000,512.000000) scale(0.100000,-0.100000)"
fill="#ff6600" stroke="none">
<path d="M2370 5113 c-371 -35 -653 -114 -961 -269 -245 -122 -444 -268 -655
-478 -224 -225 -366 -423 -500 -701 -158 -326 -237 -650 -251 -1020 -15 -426
73 -832 263 -1214 133 -269 271 -459 488 -677 221 -220 412 -357 681 -489 188
-92 309 -137 500 -185 500 -126 1002 -102 1490 71 148 52 406 182 540 271 365
242 666 578 866 963 181 348 271 694 286 1090 15 426 -73 832 -263 1214 -124
250 -263 447 -458 648 -215 223 -427 377 -711 518 -296 146 -572 225 -900 255
-102 9 -333 11 -415 3z m406 -354 c1207 -118 2104 -1208 1984 -2410 -142
-1408 -1542 -2327 -2880 -1889 -1065 348 -1702 1425 -1489 2520 153 790 719
1428 1489 1680 292 96 592 129 896 99z"/>
<path d="M2200 3709 c-33 -14 -68 -47 -88 -84 -14 -25 -17 -69 -20 -245 l-4
-216 -271 -109 c-150 -59 -282 -115 -294 -124 -37 -28 -65 -88 -65 -143 0 -90
78 -168 167 -168 28 0 103 25 230 76 105 41 200 80 213 85 22 8 22 8 22 -94
l0 -103 -272 -110 c-150 -60 -285 -120 -301 -133 -39 -33 -59 -77 -59 -131 0
-99 71 -170 172 -170 26 0 112 29 250 84 l210 83 0 -316 c0 -325 5 -376 37
-420 67 -89 142 -91 411 -15 612 173 973 504 1008 926 11 125 -31 201 -125
229 -107 32 -221 -59 -221 -176 0 -56 -26 -149 -57 -207 -85 -156 -294 -300
-578 -398 -65 -22 -119 -40 -121 -40 -2 0 -4 125 -4 279 l0 279 221 88 c242
96 279 119 299 194 21 78 -13 156 -85 197 -61 35 -100 29 -268 -37 -84 -33
-156 -60 -160 -60 -4 0 -6 45 -5 101 l3 100 220 88 c163 65 228 95 252 119
102 101 36 278 -109 290 -47 4 -70 -3 -204 -57 -83 -34 -154 -61 -157 -61 -4
0 -7 63 -7 141 0 160 -9 192 -67 236 -39 30 -128 41 -173 22z"/>
</g>
</svg>
