<?xml version="1.0" standalone="no"?>
<!DOCTYPE svg PUBLIC "-//W3C//DTD SVG 20010904//EN"
 "http://www.w3.org/TR/2001/REC-SVG-20010904/DTD/svg10.dtd">
<svg version="1.0" xmlns="http://www.w3.org/2000/svg"
 width="50" height="50" viewBox="0 0 512.000000 512.000000"
 preserveAspectRatio="xMidYMid meet">

<g transform="translate(0.000000,512.000000) scale(0.100000,-0.100000)"
fill="#00aced" stroke="none">
<path d="M2325 5109 c-500 -51 -945 -229 -1345 -537 -195 -150 -448 -432 -594
-662 -63 -99 -186 -351 -230 -471 -49 -134 -102 -340 -128 -499 -31 -195 -31
-565 0 -760 45 -276 116 -498 237 -745 132 -269 269 -460 489 -681 221 -220
412 -357 681 -489 247 -121 469 -192 745 -237 195 -31 565 -31 760 0 276 45
498 116 745 237 269 132 460 269 681 489 220 221 357 412 489 681 88 179 132
296 180 476 63 240 78 371 78 649 0 278 -15 409 -78 649 -48 180 -92 297 -180
476 -132 269 -269 460 -489 681 -221 220 -412 357 -681 489 -249 122 -482 196
-747 236 -154 23 -474 33 -613 18z m460 -329 c525 -57 978 -274 1350 -645 190
-189 315 -364 430 -600 152 -311 225 -628 225 -975 0 -599 -229 -1149 -655
-1575 -190 -190 -364 -315 -600 -430 -473 -231 -1001 -287 -1516 -159 -392 97
-741 295 -1034 589 -190 190 -315 364 -430 600 -231 473 -287 1001 -159 1516
97 392 295 740 589 1034 366 366 824 587 1335 644 107 12 359 13 465 1z"/>
<path d="M2019 3840 c-44 -13 -79 -42 -100 -81 -18 -36 -19 -63 -19 -579 l0
-540 -120 0 c-139 0 -174 -10 -215 -64 -56 -74 -38 -182 41 -236 33 -22 49
-25 165 -28 l129 -4 0 -109 0 -109 -118 0 c-145 0 -191 -18 -229 -90 -45 -84
-17 -176 67 -217 38 -20 60 -23 162 -23 l118 0 0 -180 c0 -160 2 -185 20 -219
43 -85 160 -114 234 -58 65 50 71 70 74 275 l4 182 461 0 c446 0 462 1 503 21
66 32 103 104 90 175 -9 47 -68 111 -114 124 -23 6 -214 10 -489 10 l-453 0 0
109 0 108 348 6 c293 5 361 8 437 25 276 60 479 206 580 417 57 118 70 177 69
310 -1 408 -323 726 -784 775 -111 11 -823 12 -861 0z m945 -344 c208 -61 353
-216 372 -396 17 -168 -84 -328 -251 -400 -110 -47 -152 -52 -512 -57 l-343
-5 0 442 0 442 338 -5 c281 -3 347 -7 396 -21z"/>
</g>
</svg>
